<?xml version="1.0" encoding="utf-8"?>
<!-- Generator: Adobe Illustrator 24.1.0, SVG Export Plug-In . SVG Version: 6.00 Build 0)  -->
<svg version="1.1" id="Layer_1" xmlns="http://www.w3.org/2000/svg" xmlns:xlink="http://www.w3.org/1999/xlink" x="0px" y="0px"
	 viewBox="0 0 220 237" style="enable-background:new 0 0 220 237;" xml:space="preserve">
<style type="text/css">
	.st0{fill-rule:evenodd;clip-rule:evenodd;fill:#FFFFFF;}
	.st1{fill-rule:evenodd;clip-rule:evenodd;fill:#FFDBB4;}
	.st2{fill-rule:evenodd;clip-rule:evenodd;fill-opacity:0.1;}
	.st3{fill-rule:evenodd;clip-rule:evenodd;fill:#293347;}
	.st4{fill-rule:evenodd;clip-rule:evenodd;fill:#F4F4F4;}
	.st5{fill-opacity:0.16;}
	.st6{fill-rule:evenodd;clip-rule:evenodd;fill-opacity:0.7;}
	.st7{fill-rule:evenodd;clip-rule:evenodd;fill:#FF4F6D;}
	.st8{fill-rule:evenodd;clip-rule:evenodd;fill-opacity:0.16;}
	.st9{fill-rule:evenodd;clip-rule:evenodd;fill-opacity:0.6;}
	.st10{fill-rule:evenodd;clip-rule:evenodd;fill:#4A312C;}
</style>
<circle class="st0" cx="110" cy="127" r="110"/>
<g id="Avataaar">
	<g id="Body" transform="translate(28.800000, 32.400000)">
		<path id="path-5_1_" class="st1" d="M81.5-15c27.8,0,50.4,22.6,50.4,50.4v5.5c5.1,0.9,9,5.3,9,10.7v12.6c0,5.4-4,10-9.3,10.7
			c-1.9,17.8-13,32.9-28.5,40.3v16.6h3.6c35.8,0,64.8,29,64.8,64.8v8.1h-180v-8.1c0-35.8,29-64.8,64.8-64.8h3.6v-16.6
			c-15.5-7.4-26.7-22.4-28.5-40.3c-5.2-0.7-9.3-5.2-9.3-10.7V51.6c0-5.4,3.9-9.8,9-10.7v-5.5C31.1,7.6,53.7-15,81.5-15z"/>
		<path class="st2" d="M103.1,115.1c-6.5,3.1-13.9,4.9-21.6,4.9s-15.1-1.7-21.6-4.9v7.2c6.5,3.1,13.9,4.9,21.6,4.9
			s15.1-1.7,21.6-4.9V115.1z"/>
		<path id="path-5_2_" class="st2" d="M81.5-15c27.8,0,50.4,22.6,50.4,50.4v5.5c5.1,0.9,9,5.3,9,10.7v12.6c0,5.4-4,10-9.3,10.7
			c-1.9,17.8-13,32.9-28.5,40.3v16.6h3.6c35.8,0,64.8,29,64.8,64.8v8.1h-180v-8.1c0-35.8,29-64.8,64.8-64.8h3.6v-16.6
			c-15.5-7.4-26.7-22.4-28.5-40.3c-5.2-0.7-9.3-5.2-9.3-10.7V51.6c0-5.4,3.9-9.8,9-10.7v-5.5C31.1,7.6,53.7-15,81.5-15z"/>
	</g>
	<g id="Clothing_x2F_Hoodie" transform="translate(0.000000, 153.000000)">
		<path id="path-7_1_" class="st3" d="M131.9-3.2c16.3,1.8,28.8,6.8,28.8,19.8v-0.4C184,26,200.3,49,200.3,75.9V84h-180v-8.1
			C20.3,49,36.6,26,59.9,16.2C60.2,3.5,72.6-1.4,88.7-3.2v17c0,11.9,9.7,21.6,21.6,21.6s21.6-9.7,21.6-21.6l0,0V-3.2z"/>
		<path id="Straps" class="st4" d="M83.3,40.6V84H77V37.3C79,38.5,81.1,39.6,83.3,40.6z M143.6,37.3v36.3c0,1.7-1.4,3.2-3.2,3.2
			s-3.1-1.4-3.1-3.2V40.5C139.5,39.6,141.6,38.5,143.6,37.3z"/>
		<path class="st5" d="M110.3,46.2c24.5,0,48.7-13.9,50.3-31.4c0.1,0.6,0.1,1.2,0.1,1.8v-0.4c2.8,1.2,5.6,2.6,8.2,4.2
			C162.9,35.1,136.8,46.2,110.3,46.2z M110.3,46.2c-24.5,0-48.7-13.9-50.3-31.4c0,0.4-0.1,0.9-0.1,1.4c-2.8,1.2-5.6,2.6-8.2,4.2
			C57.7,35.1,83.8,46.2,110.3,46.2z"/>
	</g>
	<g id="Face" transform="translate(68.400000, 73.800000)">
		<g id="Mouth_x2F_Smile" transform="translate(1.800000, 46.800000)">
			<path id="path-9_1_" class="st6" d="M23.1-1.4c1,8.5,8.2,15.2,17,15.2s16.1-6.7,17-15.3c0.1-0.7-0.7-1.8-1.7-1.8
				c-13.4,0-23.7,0-30.6,0C23.9-3.3,23-2.2,23.1-1.4z"/>
			<path class="st7" d="M51.5,9.4c-1.8-1.7-4.2-2.8-6.9-2.8c-1.6,0-3.1,0.4-4.5,1.1c-1.4-0.7-2.9-1.1-4.5-1.1
				c-2.7,0-5.1,1.1-6.9,2.8c3,2.7,7,4.4,11.4,4.4C44.5,13.8,48.5,12.1,51.5,9.4z"/>
			<path id="Teeth" class="st0" d="M31.1,1.2H50c2.5,0,4.5-2,4.5-4.5c-11.9,0-21.2,0-27.9,0C26.6-0.8,28.6,1.2,31.1,1.2z"/>
		</g>
		<path id="Nose" class="st8" d="M31.1,28.2c0,4,4.8,7.2,10.8,7.2l0,0c6,0,10.8-3.2,10.8-7.2"/>
		<g id="Eyes_x2F_Happy-_xD83D__xDE01_" transform="translate(0.000000, 7.200000)">
			<path id="Squint" class="st9" d="M6,5.2c1.7-3.4,5.4-5.8,9.8-5.8c4.3,0,8.1,2.4,9.7,5.8c0.5,1-0.2,1.8-0.9,1.2
				c-2.2-1.9-5.3-3.1-8.8-3.1c-3.4,0-6.4,1.1-8.6,2.9C6.4,6.9,5.6,6.2,6,5.2z"/>
			<path id="Squint_1_" class="st9" d="M58.2,5.2c1.7-3.4,5.4-5.8,9.8-5.8c4.3,0,8.1,2.4,9.7,5.8c0.5,1-0.2,1.8-0.9,1.2
				c-2.2-1.9-5.3-3.1-8.8-3.1c-3.4,0-6.4,1.1-8.6,2.9C58.6,6.9,57.8,6.2,58.2,5.2z"/>
		</g>
		<g id="Eyebrow_x2F_Natural_x2F_Default-Natural">
			<path id="Eyebrow" class="st9" d="M15.4-9.5c-5.2,0.2-13.7,4-13.5,9.3C1.9,0,2.2,0.1,2.3,0c2.5-2.7,20.1-5.4,26.3-4
				c0.6,0.1,1-0.4,0.6-0.8C26.2-8.3,20.1-9.7,15.4-9.5"/>
			<path id="Eyebrow_1_" class="st9" d="M69.3-9.5c5.2,0.2,13.7,4,13.5,9.3c0,0.2-0.3,0.2-0.4,0.1C79.9-2.7,62.3-5.4,56.1-4
				c-0.6,0.1-1-0.4-0.6-0.8C58.5-8.3,64.6-9.7,69.3-9.5"/>
		</g>
	</g>
	<path id="path-13_1_" class="st10" d="M152.6,20.9c-2.5-2.5-5.4-4.7-8.2-6.9c-0.6-0.5-1.2-0.9-1.9-1.4c-0.1-0.1-1.5-1.1-1.7-1.5
		c-0.4-0.9-0.2-0.2-0.1-1.3c0.1-1.3,2.8-5.2,0.8-6c-0.9-0.4-2.5,0.6-3.4,1c-1.7,0.7-3.4,1.2-5.2,1.7c0.8-1.7,2.4-5-0.6-4.1
		c-2.3,0.7-4.5,2.5-6.9,3.3c0.8-1.3,3.9-5.2,1.1-5.5c-0.9-0.1-3.4,1.6-4.4,1.9c-2.8,1-5.7,1.7-8.7,2.3c-10.1,1.8-21.9,1.3-31.2,5.9
		c-7.2,3.5-14.3,9-18.4,16c-4,6.7-5.5,14.1-6.3,21.8C57,53.9,57,59.7,57.3,65.4c0.1,1.9,0.3,10.4,3,7.8c1.3-1.3,1.3-6.5,1.7-8.3
		c0.7-3.5,1.3-7.1,2.5-10.5c2-6,4.3-8.8,9.3-13c3.2-2.7,5.4-6.2,8.4-8.9c1.4-1.2,0.3-1.1,2.5-0.9c1.5,0.1,3,0.1,4.4,0.2
		C92.5,32,95.9,32,99.3,32c6.9,0,13.7,0.1,20.6-0.2c3.1-0.2,6.1-0.2,9.2-0.5c1.7-0.2,4.7-1.2,6.1-0.4c1.3,0.8,2.6,3.3,3.5,4.3
		c2.2,2.4,4.8,4.3,7.3,6.2c5.3,4.1,8,5.7,9.6,12.1s1.2,12.4,3.1,18.7c0.3,1.1,1.3,3,2.4,1.3c0.2-0.3,0.2-2.1,0.2-3.1
		c0-4.1,1-7.1,1-11.2C162.3,46.7,161.9,30.4,152.6,20.9z"/>
</g>
</svg>
